# Blender v2.90.1 OBJ File: ''
# www.blender.org
o Cube.001
v -25.000000 -24.999994 -25.000006
v 25.000000 25.000006 -24.999994
v 25.000000 -24.999994 -25.000006
v -25.000000 24.999994 25.000006
v 25.000000 24.999994 25.000006
v -25.000000 25.000006 -24.999994
v -25.000000 -25.000006 24.999994
v 25.000000 -25.000006 24.999994
vt 0.999920 0.499538
vt 0.665975 0.749653
vt 0.665975 0.499652
vt 0.333602 0.999612
vt 0.333602 0.749612
vt 0.665975 0.000040
vt 0.333602 0.249612
vt 0.333602 -0.000000
vt 0.333602 0.499612
vt 0.000125 0.749941
vt 0.000125 0.499940
vt 0.665975 0.249652
vt 0.999920 0.749538
vt 0.665975 0.999653
vn 0.0000 0.0000 -1.0000
vn 0.0000 1.0000 0.0000
vn -1.0000 0.0000 0.0000
vn 0.0000 -0.0000 1.0000
vn 1.0000 0.0000 0.0000
vn 0.0000 -1.0000 -0.0000
s 1
f 1/1/1 2/2/1 3/3/1
f 2/2/2 4/4/2 5/5/2
f 6/6/3 7/7/3 4/8/3
f 8/9/4 4/10/4 7/11/4
f 3/3/5 5/5/5 8/9/5
f 1/12/6 8/9/6 7/7/6
f 1/1/1 6/13/1 2/2/1
f 2/2/2 6/14/2 4/4/2
f 6/6/3 1/12/3 7/7/3
f 8/9/4 5/5/4 4/10/4
f 3/3/5 2/2/5 5/5/5
f 1/12/6 3/3/6 8/9/6
